<svg width="24" height="24" viewBox="0 0 24 24" fill="none" xmlns="http://www.w3.org/2000/svg">
<g clip-path="url(#clip0_1304_15708)">
<path d="M24 0H0V24H24V0Z" fill="white"/>
<path d="M11.5293 6.3651C11.5293 5.05889 10.4704 4 9.1642 4H8.93176C8.28715 4 7.76459 4.52256 7.76459 5.16717V5.44C7.76459 6.2041 8.38402 6.82353 9.14812 6.82353H11.0709C11.3241 6.82353 11.5293 6.61828 11.5293 6.3651Z" fill="#3D68FF"/>
<path d="M12.4707 6.3651C12.4707 5.05889 13.5296 4 14.8358 4H15.0682C15.7128 4 16.2354 4.52256 16.2354 5.16717V5.44C16.2354 6.2041 15.616 6.82353 14.8519 6.82353H12.9291C12.6759 6.82353 12.4707 6.61828 12.4707 6.3651Z" fill="#3D68FF"/>
<rect x="4" y="7.76562" width="7.52941" height="3.76471" rx="0.941176" fill="#3D68FF"/>
<rect x="4.94141" y="12.4688" width="6.58824" height="7.52941" rx="0.941176" fill="#3D68FF"/>
<rect x="12.4707" y="7.76562" width="7.52941" height="3.76471" rx="0.941176" fill="#3D68FF"/>
<rect x="12.4707" y="12.4688" width="6.58824" height="7.52941" rx="0.941176" fill="#3D68FF"/>
</g>
<defs>
<clipPath id="clip0_1304_15708">
<rect width="24" height="24" rx="4" fill="white"/>
</clipPath>
</defs>
</svg>
